# File created by Blade
# Date/Time:  Wed Apr 08 17:16:55 2015
#---------------------------------------------------------
:version 1.10
:name HOM
:units
  mass 1.0
  length 1.000000
  angle deg
:documentation
     Acclaim Skeleton File
:root
   axis xyz
   order TX TY TZ RX RY RZ
   position 0.000000 0.000000 0.000000
   orientation 0 0 0
:bonedata
   begin
      id 1
      name Spine_dum
      direction 0.000000 1.000000 0.000000
      length 5.893853
      axis 0.0 0.0 0.0 xyz
   end
   begin
      id 2
      name LeftUpLeg_dum
      direction 1.000000 0.000000 0.000000
      length 3.697939
      axis 0.0 0.0 0.0 xyz
   end
   begin
      id 3
      name RightUpLeg_dum
      direction -1.000000 0.000000 0.000000
      length 3.697939
      axis 0.0 0.0 0.0 xyz
   end
   begin
      id 4
      name Spine
      direction 0.000000 1.000000 0.000000
      length 0.000000
      axis 0.0 0.0 0.0 xyz
      dof rx ry rz
   end
   begin
      id 5
      name Spine_dum1
      direction 0.000000 1.000000 0.000000
      length 16.447146
      axis 0.0 0.0 0.0 xyz
   end
   begin
      id 6
      name Spine_dum2
      direction 0.000000 1.000000 0.000000
      length 10.900383
      axis 0.0 0.0 0.0 xyz
   end
   begin
      id 7
      name Spine_dum3
      direction 0.000000 1.000000 0.000000
      length 10.900383
      axis 0.0 0.0 0.0 xyz
   end
   begin
      id 8
      name Head
      direction 0.000000 1.000000 0.000000
      length 4.527550
      axis 0.0 0.0 0.0 xyz
      dof rx ry rz
   end
   begin
      id 9
      name LeftShoulder
      direction 1.000000 0.000000 0.000000
      length 8.219464
      axis 0.0 0.0 -90.0 xyz
      dof rx ry rz
   end
   begin
      id 10
      name LeftArm
      direction 1.000000 0.000000 0.000000
      length 11.094937
      axis 0.0 0.0 -90.0 xyz
      dof rx ry rz
   end
   begin
      id 11
      name LeftForeArm
      direction 1.000000 0.000000 0.000000
      length 9.103875
      axis 0.0 0.0 -90.0 xyz
      dof ry rz rx
   end
   begin
      id 12
      name LeftHand
      direction 0.000000 0.000000 0.000000
      length 0.000000
      axis 0.0 0.0 -90.0 xyz
      dof rx ry rz
   end
   begin
      id 13
      name LeftHand_dum1
      direction 0.000000 0.000000 0.000000
      length 0.000000
      axis 0.0 0.0 -90.0 xyz
   end
   begin
      id 14
      name LeftHand_dum2
      direction 1.000000 0.000000 0.000000
      length 3.937000
      axis 0.0 0.0 -90.0 xyz
   end
   begin
      id 15
      name LeftHandThumb1
      direction 0.000000 0.000000 1.000000
      length 3.937000
      axis 0.0 0.0 -90.0 xyz
      dof rx rz ry
   end
   begin
      id 16
      name RightShoulder
      direction -1.000000 0.000000 0.000000
      length 8.219464
      axis 0.0 0.0 90.0 xyz
      dof rx ry rz
   end
   begin
      id 17
      name RightArm
      direction -1.000000 0.000000 0.000000
      length 11.094937
      axis 0.0 0.0 90.0 xyz
      dof rx ry rz
   end
   begin
      id 18
      name RightForeArm
      direction -1.000000 0.000000 0.000000
      length 9.103875
      axis 0.0 0.0 90.0 xyz
      dof ry rz rx
   end
   begin
      id 19
      name RightHand
      direction 0.000000 0.000000 0.000000
      length 0.000000
      axis 0.0 0.0 90.0 xyz
      dof rx ry rz
   end
   begin
      id 20
      name RightHand_dum1
      direction 0.000000 0.000000 0.000000
      length 0.000000
      axis 0.0 0.0 90.0 xyz
   end
   begin
      id 21
      name RightHand_dum2
      direction -1.000000 0.000000 0.000000
      length 3.937000
      axis 0.0 0.0 90.0 xyz
   end
   begin
      id 22
      name RightHandThumb1
      direction 0.000000 0.000000 1.000000
      length 3.937000
      axis 0.0 0.0 90.0 xyz
      dof rx rz ry
   end
   begin
      id 23
      name LeftUpLeg
      direction 0.000000 -1.000000 0.000000
      length 16.181467
      axis 0.0 0.0 0.0 xyz
      dof rx ry rz
   end
   begin
      id 24
      name LeftLeg
      direction 0.000000 -1.000000 0.000000
      length 16.501392
      axis 0.0 0.0 0.0 xyz
      dof rx ry rz
   end
   begin
      id 25
      name LeftFoot
      direction 0.000000 -0.258819 0.965926
      length 6.408245
      axis 15.0 0.0 0.0 xyz
      dof rx ry rz
   end
   begin
      id 26
      name LeftToeBase
      direction 0.000000 0.000000 1.000000
      length 2.952750
      axis 0.0 0.0 0.0 xyz
      dof rx ry rz
   end
   begin
      id 27
      name RightUpLeg
      direction 0.000000 -1.000000 0.000000
      length 16.181467
      axis 0.0 0.0 0.0 xyz
      dof rx ry rz
   end
   begin
      id 28
      name RightLeg
      direction 0.000000 -1.000000 0.000000
      length 16.501392
      axis 0.0 0.0 0.0 xyz
      dof rx ry rz
   end
   begin
      id 29
      name RightFoot
      direction 0.000000 -0.258819 0.965926
      length 6.408245
      axis 15.0 0.0 0.0 xyz
      dof rx ry rz
   end
   begin
      id 30
      name RightToeBase
      direction 0.000000 0.000000 1.000000
      length 2.952750
      axis 0.0 0.0 0.0 xyz
      dof rx ry rz
   end
:hierarchy
   begin
      root Spine_dum LeftUpLeg_dum RightUpLeg_dum
      Spine_dum Spine
      LeftUpLeg_dum LeftUpLeg
      RightUpLeg_dum RightUpLeg
      Spine Spine_dum1 Spine_dum2 Spine_dum3
      Spine_dum1 Head
      Spine_dum2 LeftShoulder
      Spine_dum3 RightShoulder
      LeftShoulder LeftArm
      LeftArm LeftForeArm
      LeftForeArm LeftHand
      LeftHand LeftHand_dum1 LeftHand_dum2
      LeftHand_dum1 LeftHandThumb1
      RightShoulder RightArm
      RightArm RightForeArm
      RightForeArm RightHand
      RightHand RightHand_dum1 RightHand_dum2
      RightHand_dum1 RightHandThumb1
      LeftUpLeg LeftLeg
      LeftLeg LeftFoot
      LeftFoot LeftToeBase
      RightUpLeg RightLeg
      RightLeg RightFoot
      RightFoot RightToeBase
   end

# File created by Blade
# Date/Time:  Wed Apr 08 17:17:01 2015
# Frame Rate: 120.000 fps
#------------------------------------------------------
:FULLY-SPECIFIED
:DEGREES
447
root 4.566225 36.550459 4.749944 -7.726066 -36.451854 -14.479194
Spine 18.379709 0.285651 19.134698
Head 7.076789 28.961646 2.510634
LeftShoulder -5.591588 15.394921 16.031295
LeftArm 24.198094 26.241412 -75.119874
LeftForeArm 27.501435 -0.000000 39.077033
LeftHand -9.301300 -0.000000 -14.716836
LeftHandThumb1 -26.253704 0.000000 33.147579
RightShoulder -22.959878 -47.999877 16.218438
RightArm 59.346841 -12.570652 48.542165
RightForeArm 33.128187 -0.000000 23.647013
RightHand -0.635151 -0.000000 16.197055
RightHandThumb1 -24.326973 -0.000000 -32.862282
LeftUpLeg 15.217084 16.340978 11.335805
LeftLeg 17.588263 -0.000000 -0.000000
LeftFoot -19.332659 -9.148036 -12.714864
LeftToeBase 19.429402 -0.000000 -0.000000
RightUpLeg -67.091329 3.151240 -1.008064
RightLeg 154.860949 -0.000000 -0.000000
RightFoot 40.373122 10.318782 17.344856
RightToeBase -3.570711 -0.000000 0.000000
448
root 4.539585 36.564121 4.715199 -7.564150 -36.171743 -14.463884
Spine 18.152465 0.153341 18.812105
Head 7.167914 29.078886 2.448625
LeftShoulder -5.687157 15.507429 15.885199
LeftArm 24.030188 26.198270 -75.190690
LeftForeArm 27.285978 -0.000000 38.952447
LeftHand -9.417180 -0.000000 -14.721461
LeftHandThumb1 -26.253704 0.000000 33.147579
RightShoulder -23.022646 -48.022402 16.237820
RightArm 59.412658 -12.806202 48.730644
RightForeArm 32.673222 -0.000000 23.842060
RightHand -0.936601 -0.000000 15.971153
RightHandThumb1 -24.326973 -0.000000 -32.862282
LeftUpLeg 15.089918 16.345045 11.417102
LeftLeg 17.358013 -0.000000 -0.000000
LeftFoot -19.182038 -9.519502 -12.866021
LeftToeBase 19.515969 -0.000000 -0.000000
RightUpLeg -67.143818 3.514024 -0.845082
RightLeg 155.108204 -0.000000 -0.000000
RightFoot 40.265844 10.338250 17.143578
RightToeBase -2.772379 -0.000000 0.000000
449
root 4.514220 36.575753 4.681031 -7.441580 -35.860072 -14.404279
Spine 17.942685 -0.000878 18.441787
Head 7.223335 29.210462 2.409161
LeftShoulder -5.775317 15.613489 15.765927
LeftArm 23.930319 26.230256 -75.192204
LeftForeArm 27.098368 -0.000000 38.752475
LeftHand -9.459848 -0.000000 -14.778493
LeftHandThumb1 -26.253704 0.000000 33.147579
RightShoulder -23.087276 -48.008083 16.323460
RightArm 59.471985 -12.980369 48.918246
RightForeArm 32.274680 0.000000 23.971284
RightHand -1.036018 -0.000000 15.935265
RightHandThumb1 -24.326973 -0.000000 -32.862282
LeftUpLeg 14.973440 16.272099 11.428070
LeftLeg 17.091339 -0.000000 -0.000000
LeftFoot -19.046526 -9.808221 -13.078372
LeftToeBase 19.677574 -0.000000 -0.000000
RightUpLeg -67.169431 3.866308 -0.746250
RightLeg 155.313043 -0.000000 -0.000000
RightFoot 40.202875 10.386664 16.904920
RightToeBase -2.755071 -0.000000 0.000000
450
root 4.492075 36.585810 4.645922 -7.341354 -35.536673 -14.309219
Spine 17.738546 -0.133331 18.050725
Head 7.287714 29.332023 2.413990
LeftShoulder -5.816286 15.739063 15.686565
LeftArm 23.899088 26.274426 -75.181522
LeftForeArm 27.009422 -0.000000 38.496854
LeftHand -9.486905 -0.000000 -14.829598
LeftHandThumb1 -26.253704 0.000000 33.147579
RightShoulder -23.126027 -47.934353 16.382906
RightArm 59.478560 -13.159583 49.093430
RightForeArm 31.812387 -0.000000 24.113462
RightHand -1.249181 -0.000000 15.961851
RightHandThumb1 -24.326973 -0.000000 -32.862282
LeftUpLeg 14.841749 16.160200 11.381051
LeftLeg 16.831900 -0.000000 -0.000000
LeftFoot -18.892541 -9.999147 -13.161134
LeftToeBase 19.671450 -0.000000 -0.000000
RightUpLeg -67.191214 4.218691 -0.694258
RightLeg 155.492287 -0.000000 -0.000000
RightFoot 40.034402 10.563177 16.593099
RightToeBase -2.491355 -0.000000 0.000000
